<svg id="Layer_1" data-name="Layer 1" xmlns="http://www.w3.org/2000/svg" viewBox="0 0 38.95 38.95"><defs><style>.cls-1{fill:#39d9ff;}.cls-2{fill:#fbd700;}.cls-3{fill:#f95352;}</style></defs><title>Untitled-2</title><g id="_Group_" data-name="&lt;Group&gt;"><g id="_Group_2" data-name="&lt;Group&gt;"><path id="_Path_" data-name="&lt;Path&gt;" class="cls-1" d="M31.37,17.26h0V7.16a0.63,0.63,0,0,0-.63-0.63H7.16a0.63,0.63,0,0,0-.63.63V30.73a0.63,0.63,0,0,0,.63.63h10.1A14.11,14.11,0,0,1,31.37,17.26Z" transform="translate(-6.52 -6.52)"/><path id="_Path_2" data-name="&lt;Path&gt;" class="cls-2" d="M31.37,17.26V30.72a0.65,0.65,0,0,1-.65.65H17.26A14.11,14.11,0,1,0,31.37,17.26Z" transform="translate(-6.52 -6.52)"/><path id="_Path_3" data-name="&lt;Path&gt;" class="cls-3" d="M31.37,17.26h0A14.11,14.11,0,0,0,17.26,31.37H30.73a0.63,0.63,0,0,0,.63-0.63V17.26Z" transform="translate(-6.52 -6.52)"/></g></g></svg>