<?xml version="1.0" encoding="utf-8"?>
<!-- Generator: Adobe Illustrator 19.2.1, SVG Export Plug-In . SVG Version: 6.00 Build 0)  -->
<svg version="1.1" id="Layer_1" xmlns="http://www.w3.org/2000/svg" xmlns:xlink="http://www.w3.org/1999/xlink" x="0px" y="0px"
	 viewBox="0 0 84 50" style="enable-background:new 0 0 84 50;" xml:space="preserve">
<style type="text/css">
	.st0{fill:#39D9FF;}
	.st1{fill:#FBD700;}
	.st2{fill:#F95352;}
</style>
<g id="XMLID_2_">
	<g id="XMLID_3_">
		<path id="XMLID_10_" class="st0" d="M31.4,17.3L31.4,17.3l0-10.1c0-0.4-0.3-0.6-0.6-0.6H7.2c-0.4,0-0.6,0.3-0.6,0.6v23.6
			c0,0.4,0.3,0.6,0.6,0.6h10.1C17.3,23.6,23.6,17.3,31.4,17.3z"/>
		<path id="XMLID_9_" class="st1" d="M31.4,17.3v13.5c0,0.4-0.3,0.6-0.6,0.6H17.3c0,8.3,7.2,15,15.7,14c6.5-0.7,11.7-6,12.4-12.4
			C46.3,24.5,39.7,17.3,31.4,17.3z"/>
		<path id="XMLID_8_" class="st2" d="M31.4,17.3L31.4,17.3c-7.8,0-14.1,6.3-14.1,14.1h13.5c0.4,0,0.6-0.3,0.6-0.6V17.3z"/>
	</g>
</g>
</svg>
