<?xml version="1.0" encoding="utf-8"?>
<!-- Generator: Adobe Illustrator 19.2.1, SVG Export Plug-In . SVG Version: 6.00 Build 0)  -->
<svg version="1.1" id="Layer_1" xmlns="http://www.w3.org/2000/svg" xmlns:xlink="http://www.w3.org/1999/xlink" x="0px" y="0px"
	 viewBox="0 0 62.7 54.1" style="enable-background:new 0 0 62.7 54.1;" xml:space="preserve">
<style type="text/css">
	.st0{fill:#39D9FF;}
</style>
<path class="st0" d="M44,22.3H13.6c-2.5,0-4.5,2-4.5,4.5v15.8c0,2.5,2,4.5,4.5,4.5H44c2.5,0,4.5-2,4.5-4.5V26.8
	C48.5,24.3,46.5,22.3,44,22.3z M45.2,28.4L32.7,39.7c-1.1,1-2.5,1.5-3.9,1.5c-1.4,0-2.8-0.5-3.9-1.5L12.4,28.4
	c-0.8-0.7-0.9-2-0.1-2.8c0.7-0.8,2-0.9,2.8-0.1l12.5,11.3c0.8,0.7,1.8,0.7,2.5,0l12.5-11.3c0.8-0.7,2-0.7,2.8,0.1
	C46.1,26.4,46,27.7,45.2,28.4z"/>
</svg>
