<?xml version="1.0" encoding="utf-8"?>
<!-- Generator: Adobe Illustrator 19.2.1, SVG Export Plug-In . SVG Version: 6.00 Build 0)  -->
<svg version="1.1" id="Layer_1" xmlns="http://www.w3.org/2000/svg" xmlns:xlink="http://www.w3.org/1999/xlink" x="0px" y="0px"
	 viewBox="0 0 62.7 54.1" style="enable-background:new 0 0 62.7 54.1;" xml:space="preserve">
<style type="text/css">
	.st0{fill:#39D9FF;}
</style>
<g id="layer1" transform="translate(-539.17946,-568.85777)">
	<g>
		<path id="path3611_8_" class="st0" d="M558.1,622.9c14.8,0,23-12.3,23-23c0-0.3,0-0.7,0-1c1.6-1.1,2.9-2.6,4-4.2
			c-1.4,0.6-3,1.1-4.6,1.3c1.7-1,2.9-2.6,3.5-4.5c-1.6,0.9-3.3,1.6-5.1,2c-1.5-1.6-3.6-2.5-5.9-2.5c-4.5,0-8.1,3.6-8.1,8.1
			c0,0.6,0.1,1.2,0.2,1.8c-6.7-0.3-12.7-3.5-16.6-8.4c-0.7,1.2-1.1,2.6-1.1,4.1c0,2.8,1.4,5.3,3.6,6.7c-1.3,0-2.6-0.4-3.7-1
			c0,0,0,0.1,0,0.1c0,3.9,2.8,7.2,6.5,7.9c-0.7,0.2-1.4,0.3-2.1,0.3c-0.5,0-1-0.1-1.5-0.1c1,3.2,4,5.5,7.5,5.6
			c-2.8,2.2-6.2,3.5-10,3.5c-0.7,0-1.3,0-1.9-0.1C549.3,621.6,553.6,622.9,558.1,622.9"/>
	</g>
</g>
</svg>
